<svg width="50" height="50" viewBox="0 0 50 50" fill="none" xmlns="http://www.w3.org/2000/svg">
<path d="M48.4375 17.1875C48.4357 15.5305 47.7766 13.9418 46.6049 12.7701C45.4332 11.5984 43.8445 10.9393 42.1875 10.9375H37.5V9.375C37.4987 8.13219 37.0044 6.94066 36.1256 6.06186C35.2468 5.18307 34.0553 4.68879 32.8125 4.6875H17.1875C15.9447 4.68879 14.7532 5.18307 13.8744 6.06186C12.9956 6.94066 12.5013 8.13219 12.5 9.375V10.9375H7.8125C6.15545 10.9393 4.56679 11.5984 3.39508 12.7701C2.22337 13.9418 1.56431 15.5305 1.5625 17.1875V21.875H48.4375V17.1875ZM34.375 10.9375H15.625V9.375C15.625 8.9606 15.7896 8.56317 16.0826 8.27015C16.3757 7.97712 16.7731 7.8125 17.1875 7.8125H32.8125C33.2269 7.8125 33.6243 7.97712 33.9174 8.27015C34.2104 8.56317 34.375 8.9606 34.375 9.375V10.9375Z" fill="#0F172A"/>
<path d="M32.8125 25.7812C32.8125 26.4029 32.5656 26.999 32.126 27.4385C31.6865 27.8781 31.0904 28.125 30.4688 28.125H19.5312C18.9096 28.125 18.3135 27.8781 17.874 27.4385C17.4344 26.999 17.1875 26.4029 17.1875 25.7812V25.3906C17.1875 25.287 17.1463 25.1877 17.0731 25.1144C16.9998 25.0412 16.9005 25 16.7969 25H1.5625V39.0625C1.5625 40.7201 2.22098 42.3098 3.39308 43.4819C4.56519 44.654 6.1549 45.3125 7.8125 45.3125H42.1875C43.8451 45.3125 45.4348 44.654 46.6069 43.4819C47.779 42.3098 48.4375 40.7201 48.4375 39.0625V25H33.2031C33.0995 25 33.0002 25.0412 32.9269 25.1144C32.8537 25.1877 32.8125 25.287 32.8125 25.3906V25.7812Z" fill="#0F172A"/>
</svg>
