<svg width="60" height="60" viewBox="0 0 60 60" fill="none" xmlns="http://www.w3.org/2000/svg">
<path d="M49.35 18.3255L38.25 5.82545C38.0163 5.56647 37.7309 5.35927 37.4123 5.21719C37.0937 5.0751 36.7489 5.00127 36.4 5.00045H16.4C15.5694 4.99054 14.7449 5.14435 13.9738 5.45309C13.2026 5.76183 12.4998 6.21946 11.9055 6.79983C11.3111 7.38021 10.837 8.07197 10.51 8.83562C10.1831 9.59926 10.0098 10.4198 10 11.2505V48.7505C10.0098 49.5811 10.1831 50.4016 10.51 51.1653C10.837 51.9289 11.3111 52.6207 11.9055 53.2011C12.4998 53.7814 13.2026 54.2391 13.9738 54.5478C14.7449 54.8566 15.5694 55.0104 16.4 55.0005H43.6C44.4306 55.0104 45.2551 54.8566 46.0262 54.5478C46.7974 54.2391 47.5002 53.7814 48.0945 53.2011C48.6889 52.6207 49.163 51.9289 49.49 51.1653C49.8169 50.4016 49.9902 49.5811 50 48.7505V20.0005C49.9984 19.3809 49.7667 18.7839 49.35 18.3255ZM22.5 30.0005H30C30.663 30.0005 31.2989 30.2638 31.7678 30.7327C32.2366 31.2015 32.5 31.8374 32.5 32.5005C32.5 33.1635 32.2366 33.7994 31.7678 34.2682C31.2989 34.7371 30.663 35.0005 30 35.0005H22.5C21.837 35.0005 21.2011 34.7371 20.7322 34.2682C20.2634 33.7994 20 33.1635 20 32.5005C20 31.8374 20.2634 31.2015 20.7322 30.7327C21.2011 30.2638 21.837 30.0005 22.5 30.0005ZM37.5 45.0005H22.5C21.837 45.0005 21.2011 44.7371 20.7322 44.2682C20.2634 43.7994 20 43.1635 20 42.5005C20 41.8374 20.2634 41.2015 20.7322 40.7327C21.2011 40.2638 21.837 40.0005 22.5 40.0005H37.5C38.163 40.0005 38.7989 40.2638 39.2678 40.7327C39.7366 41.2015 40 41.8374 40 42.5005C40 43.1635 39.7366 43.7994 39.2678 44.2682C38.7989 44.7371 38.163 45.0005 37.5 45.0005ZM36.775 20.0005C36.2596 19.9497 35.7848 19.6985 35.4528 19.3011C35.1208 18.9036 34.9582 18.3916 35 17.8755V10.0005L44.35 20.0005H36.775Z" fill="#181A18"/>
</svg>
