<svg width="24" height="24" viewBox="0 0 24 24" fill="none" xmlns="http://www.w3.org/2000/svg">
<path d="M8.08004 19.9998C9.55874 20.0493 11.0323 19.8018 12.4138 19.2721C13.7952 18.7424 15.0565 17.9411 16.1229 16.9156C17.1894 15.8901 18.0395 14.6613 18.623 13.3017C19.2065 11.9421 19.5115 10.4793 19.52 8.9998C20.1977 8.16121 20.7009 7.19563 21 6.1598C21.0224 6.07796 21.0206 5.99141 20.9949 5.91057C20.9691 5.82974 20.9206 5.75806 20.8551 5.70417C20.7896 5.65027 20.7099 5.61647 20.6256 5.60683C20.5413 5.59718 20.456 5.6121 20.38 5.6498C20.0255 5.82045 19.6264 5.87558 19.2389 5.80741C18.8514 5.73923 18.495 5.5512 18.22 5.2698C17.869 4.88538 17.4444 4.57533 16.9713 4.35803C16.4982 4.14072 15.9863 4.02059 15.466 4.00473C14.9456 3.98888 14.4274 4.07763 13.942 4.26574C13.4566 4.45384 13.0138 4.73746 12.64 5.0998C12.1282 5.59546 11.7534 6.21509 11.5519 6.89847C11.3503 7.58186 11.329 8.30575 11.49 8.9998C8.14004 9.1998 5.84004 7.6098 4.00004 5.4298C3.94476 5.3672 3.87246 5.32205 3.79194 5.29987C3.71143 5.27769 3.6262 5.27943 3.54667 5.30488C3.46713 5.33033 3.39672 5.37839 3.34405 5.4432C3.29137 5.508 3.25871 5.58674 3.25004 5.6698C2.89951 7.61422 3.15237 9.61935 3.97466 11.4159C4.79695 13.2124 6.14929 14.7143 7.85004 15.7198C6.70968 17.0276 5.10825 17.8445 3.38004 17.9998C3.28745 18.0152 3.20198 18.0591 3.13559 18.1254C3.0692 18.1917 3.02521 18.2772 3.00979 18.3698C2.99436 18.4623 3.00826 18.5574 3.04954 18.6417C3.09083 18.726 3.15744 18.7952 3.24004 18.8398C4.74356 19.5912 6.39927 19.988 8.08004 19.9998Z" fill="#064749"/>
</svg>
