<svg width="55" height="55" viewBox="0 0 55 55" fill="none" xmlns="http://www.w3.org/2000/svg">
<path fill-rule="evenodd" clip-rule="evenodd" d="M27.5002 2.86475C28.4494 2.86475 29.2189 3.63426 29.2189 4.5835V7.52071C38.9223 8.34442 46.6559 16.0781 47.4796 25.7814H50.4168C51.3661 25.7814 52.1356 26.5509 52.1356 27.5002C52.1356 28.4494 51.3661 29.2189 50.4168 29.2189H47.4796C46.6559 38.9223 38.9223 46.6559 29.2189 47.4796V50.4168C29.2189 51.3661 28.4494 52.1356 27.5002 52.1356C26.5509 52.1356 25.7814 51.3661 25.7814 50.4168V47.4796C16.0781 46.6559 8.34442 38.9223 7.52071 29.2189H4.5835C3.63426 29.2189 2.86475 28.4494 2.86475 27.5002C2.86475 26.5509 3.63426 25.7814 4.5835 25.7814H7.52071C8.34442 16.0781 16.0781 8.34442 25.7814 7.52071V4.5835C25.7814 3.63426 26.5509 2.86475 27.5002 2.86475ZM27.5002 10.8856C18.3242 10.8856 10.8856 18.3242 10.8856 27.5002C10.8856 36.6761 18.3242 44.1147 27.5002 44.1147C36.6761 44.1147 44.1147 36.6761 44.1147 27.5002C44.1147 18.3242 36.6761 10.8856 27.5002 10.8856ZM27.5002 22.3439C24.6524 22.3439 22.3439 24.6524 22.3439 27.5002C22.3439 30.3479 24.6524 32.6564 27.5002 32.6564C30.3479 32.6564 32.6564 30.3479 32.6564 27.5002C32.6564 24.6524 30.3479 22.3439 27.5002 22.3439ZM18.9064 27.5002C18.9064 22.754 22.754 18.9064 27.5002 18.9064C32.2464 18.9064 36.0939 22.754 36.0939 27.5002C36.0939 32.2464 32.2464 36.0939 27.5002 36.0939C22.754 36.0939 18.9064 32.2464 18.9064 27.5002Z" fill="#1C274C"/>
</svg>
