<svg width="96" height="24" viewBox="0 0 96 24" fill="none" xmlns="http://www.w3.org/2000/svg">
<path d="M15.1498 8.39994C14.3834 8.39731 13.6239 8.54583 12.9149 8.83701C12.2059 9.12819 11.5613 9.55632 11.018 10.0969C10.4746 10.6375 10.0432 11.2799 9.74837 11.9873C9.45354 12.6948 9.30111 13.4535 9.2998 14.2199V20.0999C9.2998 20.3386 9.39463 20.5676 9.56341 20.7363C9.73219 20.9051 9.96111 20.9999 10.1998 20.9999H12.2998C12.5385 20.9999 12.7674 20.9051 12.9362 20.7363C13.105 20.5676 13.1998 20.3386 13.1998 20.0999V14.2199C13.1996 13.9473 13.2569 13.6778 13.3678 13.4288C13.4788 13.1798 13.641 12.957 13.8439 12.7749C14.0467 12.5928 14.2857 12.4555 14.5452 12.3719C14.8046 12.2884 15.0788 12.2604 15.3498 12.2899C15.8358 12.3512 16.2825 12.5886 16.605 12.9572C16.9276 13.3259 17.1036 13.8001 17.0998 14.2899V20.0999C17.0998 20.3386 17.1946 20.5676 17.3634 20.7363C17.5322 20.9051 17.7611 20.9999 17.9998 20.9999H20.0998C20.3385 20.9999 20.5674 20.9051 20.7362 20.7363C20.905 20.5676 20.9998 20.3386 20.9998 20.0999V14.2199C20.9985 13.4535 20.8461 12.6948 20.5512 11.9873C20.2564 11.2799 19.825 10.6375 19.2816 10.0969C18.7383 9.55632 18.0937 9.12819 17.3847 8.83701C16.6757 8.54583 15.9163 8.39731 15.1498 8.39994Z" fill="#064749"/>
<path d="M6.6 9.2998H3.9C3.40294 9.2998 3 9.70275 3 10.1998V20.0998C3 20.5969 3.40294 20.9998 3.9 20.9998H6.6C7.09706 20.9998 7.5 20.5969 7.5 20.0998V10.1998C7.5 9.70275 7.09706 9.2998 6.6 9.2998Z" fill="#064749"/>
<path d="M5.25 7.5C6.49264 7.5 7.5 6.49264 7.5 5.25C7.5 4.00736 6.49264 3 5.25 3C4.00736 3 3 4.00736 3 5.25C3 6.49264 4.00736 7.5 5.25 7.5Z" fill="#064749"/>
<path d="M53 3.50005C53 3.36745 52.9473 3.24027 52.8536 3.1465C52.7598 3.05273 52.6326 3.00005 52.5 3.00005H50C48.7411 2.93734 47.5086 3.37544 46.5717 4.21863C45.6348 5.06182 45.0698 6.24155 45 7.50005V10.2001H42.5C42.3674 10.2001 42.2402 10.2527 42.1464 10.3465C42.0527 10.4403 42 10.5674 42 10.7001V13.3001C42 13.4327 42.0527 13.5598 42.1464 13.6536C42.2402 13.7474 42.3674 13.8001 42.5 13.8001H45V20.5001C45 20.6327 45.0527 20.7598 45.1464 20.8536C45.2402 20.9474 45.3674 21.0001 45.5 21.0001H48.5C48.6326 21.0001 48.7598 20.9474 48.8536 20.8536C48.9473 20.7598 49 20.6327 49 20.5001V13.8001H51.62C51.7312 13.8017 51.8397 13.7661 51.9285 13.6991C52.0172 13.6321 52.0811 13.5374 52.11 13.4301L52.83 10.8301C52.8499 10.7562 52.8526 10.6787 52.8378 10.6036C52.8231 10.5286 52.7913 10.4579 52.7449 10.397C52.6985 10.3362 52.6388 10.2868 52.5704 10.2526C52.5019 10.2185 52.4265 10.2005 52.35 10.2001H49V7.50005C49.0249 7.25253 49.1411 7.02317 49.326 6.85675C49.5109 6.69033 49.7512 6.59881 50 6.60005H52.5C52.6326 6.60005 52.7598 6.54737 52.8536 6.45361C52.9473 6.35984 53 6.23266 53 6.10005V3.50005Z" fill="#064749"/>
<path d="M80.0798 19.9998C81.5585 20.0493 83.0321 19.8018 84.4135 19.2721C85.795 18.7424 87.0562 17.9411 88.1227 16.9156C89.1892 15.8901 90.0393 14.6613 90.6228 13.3017C91.2063 11.9421 91.5113 10.4793 91.5198 8.9998C92.1974 8.16121 92.7006 7.19563 92.9998 6.1598C93.0221 6.07796 93.0203 5.99141 92.9946 5.91057C92.9689 5.82974 92.9203 5.75806 92.8548 5.70417C92.7893 5.65027 92.7096 5.61647 92.6253 5.60683C92.5411 5.59718 92.4558 5.6121 92.3798 5.6498C92.0253 5.82045 91.6262 5.87558 91.2386 5.80741C90.8511 5.73923 90.4948 5.5512 90.2198 5.2698C89.8687 4.88538 89.4441 4.57533 88.971 4.35803C88.498 4.14072 87.9861 4.02059 87.4657 4.00473C86.9454 3.98888 86.4272 4.07763 85.9417 4.26574C85.4563 4.45384 85.0136 4.73746 84.6398 5.0998C84.128 5.59546 83.7531 6.21509 83.5516 6.89847C83.3501 7.58186 83.3288 8.30575 83.4898 8.9998C80.1398 9.1998 77.8398 7.6098 75.9998 5.4298C75.9445 5.3672 75.8722 5.32205 75.7917 5.29987C75.7112 5.27769 75.626 5.27943 75.5464 5.30488C75.4669 5.33033 75.3965 5.37839 75.3438 5.4432C75.2911 5.508 75.2585 5.58674 75.2498 5.6698C74.8993 7.61422 75.1521 9.61935 75.9744 11.4159C76.7967 13.2124 78.149 14.7143 79.8498 15.7198C78.7094 17.0276 77.108 17.8445 75.3798 17.9998C75.2872 18.0152 75.2017 18.0591 75.1353 18.1254C75.069 18.1917 75.025 18.2772 75.0095 18.3698C74.9941 18.4623 75.008 18.5574 75.0493 18.6417C75.0906 18.726 75.1572 18.7952 75.2398 18.8398C76.7433 19.5912 78.399 19.988 80.0798 19.9998Z" fill="#064749"/>
</svg>
