<svg width="96" height="24" viewBox="0 0 96 24" fill="none" xmlns="http://www.w3.org/2000/svg">
<path d="M15.15 8.39994C14.3836 8.39731 13.6242 8.54583 12.9152 8.83701C12.2062 9.12819 11.5616 9.55632 11.0182 10.0969C10.4749 10.6375 10.0434 11.2799 9.74861 11.9873C9.45379 12.6948 9.30136 13.4535 9.30005 14.2199V20.0999C9.30005 20.3386 9.39487 20.5676 9.56365 20.7363C9.73244 20.9051 9.96135 20.9999 10.2 20.9999H12.3C12.5387 20.9999 12.7677 20.9051 12.9364 20.7363C13.1052 20.5676 13.2 20.3386 13.2 20.0999V14.2199C13.1999 13.9473 13.2571 13.6778 13.3681 13.4288C13.4791 13.1798 13.6413 12.957 13.8441 12.7749C14.047 12.5928 14.2859 12.4555 14.5454 12.3719C14.8049 12.2884 15.0791 12.2604 15.35 12.2899C15.8361 12.3512 16.2827 12.5886 16.6053 12.9572C16.9278 13.3259 17.1039 13.8001 17.1 14.2899V20.0999C17.1 20.3386 17.1949 20.5676 17.3637 20.7363C17.5324 20.9051 17.7614 20.9999 18 20.9999H20.1C20.3387 20.9999 20.5677 20.9051 20.7364 20.7363C20.9052 20.5676 21 20.3386 21 20.0999V14.2199C20.9987 13.4535 20.8463 12.6948 20.5515 11.9873C20.2567 11.2799 19.8252 10.6375 19.2819 10.0969C18.7385 9.55632 18.0939 9.12819 17.3849 8.83701C16.6759 8.54583 15.9165 8.39731 15.15 8.39994Z" fill="#064749"/>
<path d="M6.6 9.2998H3.9C3.40294 9.2998 3 9.70275 3 10.1998V20.0998C3 20.5969 3.40294 20.9998 3.9 20.9998H6.6C7.09706 20.9998 7.5 20.5969 7.5 20.0998V10.1998C7.5 9.70275 7.09706 9.2998 6.6 9.2998Z" fill="#064749"/>
<path d="M5.25 7.5C6.49264 7.5 7.5 6.49264 7.5 5.25C7.5 4.00736 6.49264 3 5.25 3C4.00736 3 3 4.00736 3 5.25C3 6.49264 4.00736 7.5 5.25 7.5Z" fill="#064749"/>
<path d="M53 3.50005C53 3.36745 52.9473 3.24027 52.8536 3.1465C52.7598 3.05273 52.6326 3.00005 52.5 3.00005H50C48.7411 2.93734 47.5086 3.37544 46.5717 4.21863C45.6348 5.06182 45.0698 6.24155 45 7.50005V10.2001H42.5C42.3674 10.2001 42.2402 10.2527 42.1464 10.3465C42.0527 10.4403 42 10.5674 42 10.7001V13.3001C42 13.4327 42.0527 13.5598 42.1464 13.6536C42.2402 13.7474 42.3674 13.8001 42.5 13.8001H45V20.5001C45 20.6327 45.0527 20.7598 45.1464 20.8536C45.2402 20.9474 45.3674 21.0001 45.5 21.0001H48.5C48.6326 21.0001 48.7598 20.9474 48.8536 20.8536C48.9473 20.7598 49 20.6327 49 20.5001V13.8001H51.62C51.7312 13.8017 51.8397 13.7661 51.9285 13.6991C52.0172 13.6321 52.0811 13.5374 52.11 13.4301L52.83 10.8301C52.8499 10.7562 52.8526 10.6787 52.8378 10.6036C52.8231 10.5286 52.7913 10.4579 52.7449 10.397C52.6985 10.3362 52.6388 10.2868 52.5704 10.2526C52.5019 10.2185 52.4265 10.2005 52.35 10.2001H49V7.50005C49.0249 7.25253 49.1411 7.02317 49.326 6.85675C49.5109 6.69033 49.7512 6.59881 50 6.60005H52.5C52.6326 6.60005 52.7598 6.54737 52.8536 6.45361C52.9473 6.35984 53 6.23266 53 6.10005V3.50005Z" fill="#064749"/>
<path d="M80.08 19.9998C81.5587 20.0493 83.0323 19.8018 84.4138 19.2721C85.7952 18.7424 87.0565 17.9411 88.1229 16.9156C89.1894 15.8901 90.0395 14.6613 90.623 13.3017C91.2065 11.9421 91.5115 10.4793 91.52 8.9998C92.1977 8.16121 92.7009 7.19563 93 6.1598C93.0224 6.07796 93.0206 5.99141 92.9949 5.91057C92.9691 5.82974 92.9206 5.75806 92.8551 5.70417C92.7896 5.65027 92.7099 5.61647 92.6256 5.60683C92.5413 5.59718 92.456 5.6121 92.38 5.6498C92.0255 5.82045 91.6264 5.87558 91.2389 5.80741C90.8514 5.73923 90.495 5.5512 90.22 5.2698C89.869 4.88538 89.4444 4.57533 88.9713 4.35803C88.4982 4.14072 87.9863 4.02059 87.466 4.00473C86.9456 3.98888 86.4274 4.07763 85.942 4.26574C85.4566 4.45384 85.0138 4.73746 84.64 5.0998C84.1282 5.59546 83.7534 6.21509 83.5519 6.89847C83.3503 7.58186 83.329 8.30575 83.49 8.9998C80.14 9.1998 77.84 7.6098 76 5.4298C75.9448 5.3672 75.8725 5.32205 75.7919 5.29987C75.7114 5.27769 75.6262 5.27943 75.5467 5.30488C75.4671 5.33033 75.3967 5.37839 75.344 5.4432C75.2914 5.508 75.2587 5.58674 75.25 5.6698C74.8995 7.61422 75.1524 9.61935 75.9747 11.4159C76.7969 13.2124 78.1493 14.7143 79.85 15.7198C78.7097 17.0276 77.1083 17.8445 75.38 17.9998C75.2875 18.0152 75.202 18.0591 75.1356 18.1254C75.0692 18.1917 75.0252 18.2772 75.0098 18.3698C74.9944 18.4623 75.0083 18.5574 75.0495 18.6417C75.0908 18.726 75.1574 18.7952 75.24 18.8398C76.7436 19.5912 78.3993 19.988 80.08 19.9998Z" fill="#064749"/>
</svg>
