<svg width="160" height="53" viewBox="0 0 160 53" fill="none" xmlns="http://www.w3.org/2000/svg">
<path d="M59.1852 26.8629C59.1852 26.0742 59.2696 25.3108 59.4385 24.5725C59.6242 23.8342 59.9112 23.1798 60.2996 22.6092C60.688 22.022 61.1945 21.5605 61.8193 21.2249C62.444 20.8726 63.2038 20.6964 64.0987 20.6964C64.9937 20.6964 65.7535 20.8726 66.3782 21.2249C67.003 21.5605 67.5095 22.022 67.8979 22.6092C68.2862 23.1798 68.5649 23.8342 68.7337 24.5725C68.9194 25.3108 69.0123 26.0742 69.0123 26.8629C69.0123 27.6179 68.9194 28.3562 68.7337 29.0778C68.5649 29.7825 68.2862 30.4201 67.8979 30.9906C67.5095 31.5611 67.003 32.0226 66.3782 32.375C65.7535 32.7105 64.9937 32.8783 64.0987 32.8783C63.2038 32.8783 62.444 32.7105 61.8193 32.375C61.1945 32.0226 60.688 31.5611 60.2996 30.9906C59.9112 30.4201 59.6242 29.7825 59.4385 29.0778C59.2696 28.3562 59.1852 27.6179 59.1852 26.8629ZM55.2087 26.8629C55.2087 28.1717 55.4114 29.3966 55.8166 30.5376C56.2218 31.6618 56.8044 32.6434 57.5642 33.4824C58.324 34.3214 59.2527 34.9842 60.3503 35.4708C61.4647 35.9406 62.7142 36.1755 64.0987 36.1755C65.5002 36.1755 66.7497 35.9406 67.8472 35.4708C68.9448 34.9842 69.8734 34.3214 70.6333 33.4824C71.3931 32.6434 71.9756 31.6618 72.3809 30.5376C72.7861 29.3966 72.9887 28.1717 72.9887 26.8629C72.9887 25.5205 72.7861 24.2788 72.3809 23.1378C71.9756 21.98 71.3931 20.9732 70.6333 20.1175C69.8734 19.2617 68.9448 18.5905 67.8472 18.1039C66.7497 17.6173 65.5002 17.374 64.0987 17.374C62.7142 17.374 61.4647 17.6173 60.3503 18.1039C59.2527 18.5905 58.324 19.2617 57.5642 20.1175C56.8044 20.9732 56.2218 21.98 55.8166 23.1378C55.4114 24.2788 55.2087 25.5205 55.2087 26.8629Z" fill="#071C28"/>
<path d="M75.327 22.7603V35.7728H78.9235V28.9519C78.9235 27.6263 79.143 26.6783 79.582 26.1078C80.0211 25.5205 80.7302 25.2269 81.7096 25.2269C82.5707 25.2269 83.1701 25.4953 83.5078 26.0323C83.8455 26.5524 84.0144 27.3495 84.0144 28.4234V35.7728H87.6109V27.769C87.6109 26.9635 87.5349 26.2336 87.383 25.5792C87.2479 24.908 87.003 24.3459 86.6485 23.8929C86.2939 23.4231 85.8042 23.0623 85.1795 22.8106C84.5716 22.5421 83.7864 22.4079 82.824 22.4079C82.0642 22.4079 81.3212 22.5841 80.5952 22.9364C79.8691 23.272 79.2781 23.8174 78.8222 24.5725H78.7462V22.7603H75.327Z" fill="#071C28"/>
<path d="M94.7222 21.1243V35.7728H98.6987V21.1243H104.119V17.8019H89.3021V21.1243H94.7222Z" fill="#071C28"/>
<path d="M106.196 29.2791C106.196 28.759 106.246 28.2472 106.348 27.7438C106.449 27.2404 106.618 26.7957 106.854 26.4098C107.107 26.0239 107.437 25.7135 107.842 25.4786C108.247 25.2269 108.754 25.101 109.362 25.101C109.969 25.101 110.476 25.2269 110.881 25.4786C111.303 25.7135 111.633 26.0239 111.869 26.4098C112.122 26.7957 112.3 27.2404 112.401 27.7438C112.502 28.2472 112.553 28.759 112.553 29.2791C112.553 29.7993 112.502 30.3111 112.401 30.8145C112.3 31.3011 112.122 31.7457 111.869 32.1484C111.633 32.5344 111.303 32.8448 110.881 33.0797C110.476 33.3146 109.969 33.4321 109.362 33.4321C108.754 33.4321 108.247 33.3146 107.842 33.0797C107.437 32.8448 107.107 32.5344 106.854 32.1484C106.618 31.7457 106.449 31.3011 106.348 30.8145C106.246 30.3111 106.196 29.7993 106.196 29.2791ZM102.599 29.2791C102.599 30.3195 102.76 31.2591 103.08 32.0981C103.401 32.9371 103.857 33.6586 104.448 34.2627C105.039 34.8499 105.748 35.303 106.576 35.6218C107.403 35.9406 108.332 36.1 109.362 36.1C110.392 36.1 111.32 35.9406 112.148 35.6218C112.992 35.303 113.71 34.8499 114.301 34.2627C114.891 33.6586 115.347 32.9371 115.668 32.0981C115.989 31.2591 116.149 30.3195 116.149 29.2791C116.149 28.2388 115.989 27.2991 115.668 26.4602C115.347 25.6044 114.891 24.8829 114.301 24.2956C113.71 23.6915 112.992 23.2301 112.148 22.9113C111.32 22.5757 110.392 22.4079 109.362 22.4079C108.332 22.4079 107.403 22.5757 106.576 22.9113C105.748 23.2301 105.039 23.6915 104.448 24.2956C103.857 24.8829 103.401 25.6044 103.08 26.4602C102.76 27.2991 102.599 28.2388 102.599 29.2791Z" fill="#071C28"/>
<path d="M121.679 29.2791C121.679 28.759 121.73 28.2472 121.831 27.7438C121.932 27.2404 122.101 26.7957 122.338 26.4098C122.591 26.0239 122.92 25.7135 123.325 25.4786C123.731 25.2269 124.237 25.101 124.845 25.101C125.453 25.101 125.96 25.2269 126.365 25.4786C126.787 25.7135 127.116 26.0239 127.353 26.4098C127.606 26.7957 127.783 27.2404 127.884 27.7438C127.986 28.2472 128.036 28.759 128.036 29.2791C128.036 29.7993 127.986 30.3111 127.884 30.8145C127.783 31.3011 127.606 31.7457 127.353 32.1484C127.116 32.5344 126.787 32.8448 126.365 33.0797C125.96 33.3146 125.453 33.4321 124.845 33.4321C124.237 33.4321 123.731 33.3146 123.325 33.0797C122.92 32.8448 122.591 32.5344 122.338 32.1484C122.101 31.7457 121.932 31.3011 121.831 30.8145C121.73 30.3111 121.679 29.7993 121.679 29.2791ZM118.083 29.2791C118.083 30.3195 118.243 31.2591 118.564 32.0981C118.885 32.9371 119.341 33.6586 119.932 34.2627C120.523 34.8499 121.232 35.303 122.059 35.6218C122.886 35.9406 123.815 36.1 124.845 36.1C125.875 36.1 126.804 35.9406 127.631 35.6218C128.475 35.303 129.193 34.8499 129.784 34.2627C130.375 33.6586 130.831 32.9371 131.152 32.0981C131.473 31.2591 131.633 30.3195 131.633 29.2791C131.633 28.2388 131.473 27.2991 131.152 26.4602C130.831 25.6044 130.375 24.8829 129.784 24.2956C129.193 23.6915 128.475 23.2301 127.631 22.9113C126.804 22.5757 125.875 22.4079 124.845 22.4079C123.815 22.4079 122.886 22.5757 122.059 22.9113C121.232 23.2301 120.523 23.6915 119.932 24.2956C119.341 24.8829 118.885 25.6044 118.564 26.4602C118.243 27.2991 118.083 28.2388 118.083 29.2791Z" fill="#071C28"/>
<path d="M134.073 17.8019V35.7728H137.669V17.8019H134.073Z" fill="#071C28"/>
<path d="M143.287 31.5444H139.868C139.902 32.4169 140.096 33.1468 140.451 33.7341C140.822 34.3046 141.286 34.766 141.844 35.1184C142.418 35.4708 143.068 35.7225 143.794 35.8735C144.52 36.0245 145.263 36.1 146.023 36.1C146.766 36.1 147.492 36.0245 148.201 35.8735C148.927 35.7393 149.568 35.496 150.126 35.1436C150.683 34.7912 151.13 34.3298 151.468 33.7593C151.823 33.172 152 32.4505 152 31.5947C152 30.9906 151.882 30.4873 151.645 30.0845C151.409 29.6651 151.097 29.3211 150.708 29.0526C150.32 28.7673 149.872 28.5408 149.366 28.373C148.876 28.2052 148.37 28.0626 147.846 27.9451C147.34 27.8277 146.842 27.7186 146.352 27.6179C145.862 27.5173 145.423 27.4082 145.035 27.2907C144.663 27.1565 144.359 26.9887 144.123 26.7874C143.887 26.586 143.768 26.3259 143.768 26.0071C143.768 25.7386 143.836 25.5289 143.971 25.3779C144.106 25.2101 144.267 25.0842 144.452 25.0003C144.655 24.9164 144.874 24.8661 145.111 24.8493C145.347 24.8158 145.567 24.799 145.769 24.799C146.411 24.799 146.968 24.9248 147.441 25.1765C147.914 25.4114 148.175 25.8729 148.226 26.5608H151.645C151.578 25.7554 151.367 25.0926 151.012 24.5725C150.674 24.0355 150.244 23.6076 149.72 23.2888C149.197 22.97 148.598 22.7435 147.922 22.6092C147.264 22.475 146.58 22.4079 145.871 22.4079C145.161 22.4079 144.469 22.475 143.794 22.6092C143.118 22.7267 142.51 22.9448 141.97 23.2636C141.43 23.5657 140.991 23.9852 140.653 24.5221C140.332 25.0591 140.172 25.747 140.172 26.586C140.172 27.1565 140.29 27.6431 140.526 28.0458C140.763 28.4318 141.075 28.759 141.464 29.0274C141.852 29.2791 142.291 29.4889 142.781 29.6567C143.287 29.8077 143.802 29.9419 144.326 30.0594C145.609 30.3278 146.605 30.5963 147.314 30.8648C148.04 31.1333 148.403 31.536 148.403 32.0729C148.403 32.3917 148.327 32.6602 148.175 32.8783C148.023 33.0797 147.829 33.2475 147.593 33.3817C147.373 33.4992 147.12 33.5915 146.833 33.6586C146.563 33.7089 146.301 33.7341 146.048 33.7341C145.693 33.7341 145.347 33.6922 145.009 33.6083C144.689 33.5244 144.402 33.3985 144.148 33.2307C143.895 33.0461 143.684 32.8196 143.515 32.5511C143.363 32.2659 143.287 31.9303 143.287 31.5444Z" fill="#071C28"/>
<path opacity="0.8" fill-rule="evenodd" clip-rule="evenodd" d="M20.1189 12.9873L32.2379 19.9405V33.8467L20.1189 40.7999L8 33.8467V19.9405L20.1189 12.9873ZM10.6268 21.4475V32.3397L20.1189 37.7857L29.6111 32.3397V21.4475L20.1189 16.0015L10.6268 21.4475Z" fill="#31CDFF"/>
<path opacity="0.8" fill-rule="evenodd" clip-rule="evenodd" d="M30.7901 6.625L42.909 13.5781V27.4844L30.7901 34.4376L18.6711 27.4844V13.5781L30.7901 6.625ZM21.2979 15.0852V25.9773L30.7901 31.4234L40.2823 25.9773V15.0852L30.7901 9.63918L21.2979 15.0852Z" fill="#0075E1"/>
<path opacity="0.9" fill-rule="evenodd" clip-rule="evenodd" d="M30.7901 19.0244L42.909 25.9776V39.8839L30.7901 46.837L18.6711 39.8839V25.9776L30.7901 19.0244ZM21.2979 27.4847V38.3768L30.7901 43.8228L40.2823 38.3768V27.4847L30.7901 22.0386L21.2979 27.4847Z" fill="#28D898"/>
</svg>
