<svg width="191" height="69" viewBox="0 0 191 69" fill="none" xmlns="http://www.w3.org/2000/svg">
<path d="M70.6524 34.973C70.6524 33.9463 70.7532 32.9524 70.9547 31.9912C71.1765 31.03 71.5191 30.178 71.9827 29.4353C72.4463 28.6707 73.051 28.07 73.7968 27.6331C74.5426 27.1743 75.4497 26.945 76.518 26.945C77.5863 26.945 78.4933 27.1743 79.2391 27.6331C79.9849 28.07 80.5896 28.6707 81.0532 29.4353C81.5168 30.178 81.8494 31.03 82.0509 31.9912C82.2727 32.9524 82.3835 33.9463 82.3835 34.973C82.3835 35.9561 82.2727 36.9172 82.0509 37.8566C81.8494 38.7741 81.5168 39.6042 81.0532 40.3469C80.5896 41.0897 79.9849 41.6904 79.2391 42.1491C78.4933 42.586 77.5863 42.8045 76.518 42.8045C75.4497 42.8045 74.5426 42.586 73.7968 42.1491C73.051 41.6904 72.4463 41.0897 71.9827 40.3469C71.5191 39.6042 71.1765 38.7741 70.9547 37.8566C70.7532 36.9172 70.6524 35.9561 70.6524 34.973ZM65.9055 34.973C65.9055 36.6769 66.1474 38.2716 66.6312 39.7571C67.1149 41.2207 67.8103 42.4987 68.7174 43.5909C69.6244 44.6832 70.733 45.5461 72.0432 46.1796C73.3735 46.7912 74.8651 47.0971 76.518 47.0971C78.191 47.0971 79.6825 46.7912 80.9927 46.1796C82.3029 45.5461 83.4115 44.6832 84.3186 43.5909C85.2256 42.4987 85.921 41.2207 86.4048 39.7571C86.8885 38.2716 87.1304 36.6769 87.1304 34.973C87.1304 33.2254 86.8885 31.6089 86.4048 30.1234C85.921 28.6161 85.2256 27.3054 84.3186 26.1913C83.4115 25.0772 82.3029 24.2034 80.9927 23.5699C79.6825 22.9364 78.191 22.6196 76.518 22.6196C74.8651 22.6196 73.3735 22.9364 72.0432 23.5699C70.733 24.2034 69.6244 25.0772 68.7174 26.1913C67.8103 27.3054 67.1149 28.6161 66.6312 30.1234C66.1474 31.6089 65.9055 33.2254 65.9055 34.973Z" fill="#071C28"/>
<path d="M89.9217 29.6319V46.5728H94.215V37.6927C94.215 35.967 94.4771 34.7327 95.0012 33.99C95.5252 33.2254 96.3718 32.8431 97.5409 32.8431C98.5689 32.8431 99.2844 33.1927 99.6876 33.8917C100.091 34.5689 100.292 35.6065 100.292 37.0046V46.5728H104.586V36.1527C104.586 35.1041 104.495 34.1538 104.313 33.3019C104.152 32.4281 103.86 31.6963 103.437 31.1064C103.013 30.4948 102.429 30.0251 101.683 29.6974C100.957 29.3479 100.02 29.1732 98.8712 29.1732C97.9642 29.1732 97.0773 29.4025 96.2106 29.8613C95.3438 30.2982 94.6383 31.0081 94.0941 31.9912H94.0034V29.6319H89.9217Z" fill="#071C28"/>
<path d="M113.075 27.502V46.5728H117.822V27.502H124.292V23.1767H106.604V27.502H113.075Z" fill="#071C28"/>
<path d="M126.771 38.1187C126.771 37.4415 126.832 36.7753 126.953 36.1199C127.074 35.4645 127.275 34.8856 127.557 34.3832C127.86 33.8808 128.253 33.4766 128.736 33.1708C129.22 32.8431 129.825 32.6793 130.551 32.6793C131.276 32.6793 131.881 32.8431 132.365 33.1708C132.869 33.4766 133.262 33.8808 133.544 34.3832C133.846 34.8856 134.058 35.4645 134.179 36.1199C134.3 36.7753 134.36 37.4415 134.36 38.1187C134.36 38.7959 134.3 39.4622 134.179 40.1175C134.058 40.7511 133.846 41.33 133.544 41.8542C133.262 42.3567 132.869 42.7608 132.365 43.0666C131.881 43.3725 131.276 43.5254 130.551 43.5254C129.825 43.5254 129.22 43.3725 128.736 43.0666C128.253 42.7608 127.86 42.3567 127.557 41.8542C127.275 41.33 127.074 40.7511 126.953 40.1175C126.832 39.4622 126.771 38.7959 126.771 38.1187ZM122.478 38.1187C122.478 39.4731 122.669 40.6964 123.052 41.7887C123.435 42.881 123.979 43.8203 124.685 44.6067C125.39 45.3713 126.237 45.9611 127.225 46.3762C128.212 46.7912 129.321 46.9988 130.551 46.9988C131.78 46.9988 132.889 46.7912 133.876 46.3762C134.884 45.9611 135.741 45.3713 136.446 44.6067C137.152 43.8203 137.696 42.881 138.079 41.7887C138.462 40.6964 138.653 39.4731 138.653 38.1187C138.653 36.7643 138.462 35.541 138.079 34.4487C137.696 33.3346 137.152 32.3953 136.446 31.6307C135.741 30.8443 134.884 30.2436 133.876 29.8285C132.889 29.3916 131.78 29.1732 130.551 29.1732C129.321 29.1732 128.212 29.3916 127.225 29.8285C126.237 30.2436 125.39 30.8443 124.685 31.6307C123.979 32.3953 123.435 33.3346 123.052 34.4487C122.669 35.541 122.478 36.7643 122.478 38.1187Z" fill="#071C28"/>
<path d="M145.255 38.1187C145.255 37.4415 145.315 36.7753 145.436 36.1199C145.557 35.4645 145.759 34.8856 146.041 34.3832C146.343 33.8808 146.736 33.4766 147.22 33.1708C147.704 32.8431 148.308 32.6793 149.034 32.6793C149.76 32.6793 150.364 32.8431 150.848 33.1708C151.352 33.4766 151.745 33.8808 152.027 34.3832C152.33 34.8856 152.541 35.4645 152.662 36.1199C152.783 36.7753 152.844 37.4415 152.844 38.1187C152.844 38.7959 152.783 39.4622 152.662 40.1175C152.541 40.7511 152.33 41.33 152.027 41.8542C151.745 42.3567 151.352 42.7608 150.848 43.0666C150.364 43.3725 149.76 43.5254 149.034 43.5254C148.308 43.5254 147.704 43.3725 147.22 43.0666C146.736 42.7608 146.343 42.3567 146.041 41.8542C145.759 41.33 145.557 40.7511 145.436 40.1175C145.315 39.4622 145.255 38.7959 145.255 38.1187ZM140.961 38.1187C140.961 39.4731 141.153 40.6964 141.536 41.7887C141.919 42.881 142.463 43.8203 143.168 44.6067C143.874 45.3713 144.72 45.9611 145.708 46.3762C146.696 46.7912 147.804 46.9988 149.034 46.9988C150.264 46.9988 151.372 46.7912 152.36 46.3762C153.368 45.9611 154.224 45.3713 154.93 44.6067C155.635 43.8203 156.179 42.881 156.562 41.7887C156.945 40.6964 157.137 39.4731 157.137 38.1187C157.137 36.7643 156.945 35.541 156.562 34.4487C156.179 33.3346 155.635 32.3953 154.93 31.6307C154.224 30.8443 153.368 30.2436 152.36 29.8285C151.372 29.3916 150.264 29.1732 149.034 29.1732C147.804 29.1732 146.696 29.3916 145.708 29.8285C144.72 30.2436 143.874 30.8443 143.168 31.6307C142.463 32.3953 141.919 33.3346 141.536 34.4487C141.153 35.541 140.961 36.7643 140.961 38.1187Z" fill="#071C28"/>
<path d="M160.049 23.1767V46.5728H164.343V23.1767H160.049Z" fill="#071C28"/>
<path d="M171.049 41.0678H166.967C167.008 42.2038 167.24 43.154 167.663 43.9186C168.106 44.6613 168.661 45.2621 169.326 45.7208C170.011 46.1796 170.787 46.5072 171.654 46.7038C172.521 46.9005 173.408 46.9988 174.315 46.9988C175.201 46.9988 176.068 46.9005 176.915 46.7038C177.781 46.5291 178.547 46.2123 179.213 45.7536C179.878 45.2948 180.412 44.6941 180.815 43.9514C181.238 43.1868 181.45 42.2474 181.45 41.1333C181.45 40.3469 181.309 39.6916 181.027 39.1673C180.745 38.6212 180.372 38.1733 179.908 37.8238C179.444 37.4524 178.91 37.1575 178.306 36.9391C177.721 36.7206 177.116 36.535 176.491 36.382C175.887 36.2291 175.292 36.0871 174.708 35.9561C174.123 35.825 173.599 35.683 173.135 35.5301C172.692 35.3553 172.329 35.1369 172.047 34.8747C171.765 34.6126 171.624 34.274 171.624 33.8589C171.624 33.5094 171.704 33.2363 171.866 33.0397C172.027 32.8213 172.218 32.6574 172.44 32.5482C172.682 32.439 172.944 32.3735 173.226 32.3516C173.508 32.3079 173.77 32.2861 174.012 32.2861C174.778 32.2861 175.443 32.4499 176.008 32.7776C176.572 33.0834 176.885 33.6842 176.945 34.5798H181.027C180.946 33.5313 180.694 32.6684 180.271 31.9912C179.868 31.2921 179.354 30.7351 178.729 30.32C178.104 29.905 177.388 29.6101 176.582 29.4353C175.796 29.2605 174.98 29.1732 174.133 29.1732C173.287 29.1732 172.46 29.2605 171.654 29.4353C170.848 29.5882 170.122 29.8722 169.477 30.2873C168.832 30.6805 168.308 31.2266 167.905 31.9256C167.522 32.6247 167.33 33.5203 167.33 34.6126C167.33 35.3553 167.471 35.9888 167.754 36.5131C168.036 37.0155 168.409 37.4415 168.872 37.791C169.336 38.1187 169.86 38.3918 170.444 38.6102C171.049 38.8068 171.664 38.9816 172.289 39.1345C173.821 39.484 175.01 39.8336 175.857 40.1831C176.723 40.5326 177.157 41.0569 177.157 41.7559C177.157 42.171 177.066 42.5205 176.885 42.8045C176.703 43.0666 176.471 43.2851 176.189 43.4598C175.927 43.6128 175.625 43.7329 175.282 43.8203C174.96 43.8858 174.647 43.9186 174.345 43.9186C173.922 43.9186 173.508 43.864 173.105 43.7548C172.722 43.6455 172.38 43.4817 172.077 43.2632C171.775 43.0229 171.523 42.728 171.321 42.3785C171.14 42.0072 171.049 41.5702 171.049 41.0678Z" fill="#071C28"/>
<path opacity="0.8" fill-rule="evenodd" clip-rule="evenodd" d="M24.017 16.9087L38.484 25.9609V44.0653L24.017 53.1175L9.55005 44.0653V25.9609L24.017 16.9087ZM12.6858 27.923V42.1033L24.017 49.1934L35.3483 42.1033V27.923L24.017 20.8328L12.6858 27.923Z" fill="#31CDFF"/>
<path opacity="0.8" fill-rule="evenodd" clip-rule="evenodd" d="M36.7558 8.625L51.2228 17.6772V35.7816L36.7558 44.8338L22.2888 35.7816V17.6772L36.7558 8.625ZM25.4245 19.6393V33.8196L36.7558 40.9097L48.0871 33.8196V19.6393L36.7558 12.5491L25.4245 19.6393Z" fill="#0075E1"/>
<path opacity="0.9" fill-rule="evenodd" clip-rule="evenodd" d="M36.7558 24.7676L51.2228 33.8198V51.9242L36.7558 60.9764L22.2888 51.9242V33.8198L36.7558 24.7676ZM25.4245 35.7818V49.9621L36.7558 57.0523L48.0871 49.9621V35.7818L36.7558 28.6917L25.4245 35.7818Z" fill="#28D898"/>
</svg>
