<svg width="160" height="53" viewBox="0 0 160 53" fill="none" xmlns="http://www.w3.org/2000/svg">
<path d="M59.1854 26.8629C59.1854 26.0742 59.2698 25.3108 59.4387 24.5725C59.6244 23.8342 59.9115 23.1798 60.2998 22.6092C60.6882 22.022 61.1948 21.5605 61.8195 21.2249C62.4442 20.8726 63.2041 20.6964 64.099 20.6964C64.9939 20.6964 65.7537 20.8726 66.3785 21.2249C67.0032 21.5605 67.5098 22.022 67.8981 22.6092C68.2865 23.1798 68.5651 23.8342 68.7339 24.5725C68.9197 25.3108 69.0126 26.0742 69.0126 26.8629C69.0126 27.6179 68.9197 28.3562 68.7339 29.0778C68.5651 29.7825 68.2865 30.4201 67.8981 30.9906C67.5098 31.5611 67.0032 32.0226 66.3785 32.375C65.7537 32.7105 64.9939 32.8783 64.099 32.8783C63.2041 32.8783 62.4442 32.7105 61.8195 32.375C61.1948 32.0226 60.6882 31.5611 60.2998 30.9906C59.9115 30.4201 59.6244 29.7825 59.4387 29.0778C59.2698 28.3562 59.1854 27.6179 59.1854 26.8629ZM55.209 26.8629C55.209 28.1717 55.4116 29.3966 55.8168 30.5376C56.2221 31.6618 56.8046 32.6434 57.5645 33.4824C58.3243 34.3214 59.253 34.9842 60.3505 35.4708C61.4649 35.9406 62.7144 36.1755 64.099 36.1755C65.5005 36.1755 66.7499 35.9406 67.8475 35.4708C68.945 34.9842 69.8737 34.3214 70.6335 33.4824C71.3933 32.6434 71.9759 31.6618 72.3811 30.5376C72.7864 29.3966 72.989 28.1717 72.989 26.8629C72.989 25.5205 72.7864 24.2788 72.3811 23.1378C71.9759 21.98 71.3933 20.9732 70.6335 20.1175C69.8737 19.2617 68.945 18.5905 67.8475 18.1039C66.7499 17.6173 65.5005 17.374 64.099 17.374C62.7144 17.374 61.4649 17.6173 60.3505 18.1039C59.253 18.5905 58.3243 19.2617 57.5645 20.1175C56.8046 20.9732 56.2221 21.98 55.8168 23.1378C55.4116 24.2788 55.209 25.5205 55.209 26.8629Z" fill="#071C28"/>
<path d="M75.3272 22.7603V35.7728H78.9238V28.9519C78.9238 27.6263 79.1433 26.6783 79.5823 26.1078C80.0213 25.5205 80.7305 25.2269 81.7098 25.2269C82.571 25.2269 83.1704 25.4953 83.5081 26.0323C83.8458 26.5524 84.0146 27.3495 84.0146 28.4234V35.7728H87.6112V27.769C87.6112 26.9635 87.5352 26.2336 87.3832 25.5792C87.2481 24.908 87.0033 24.3459 86.6487 23.8929C86.2941 23.4231 85.8044 23.0623 85.1797 22.8106C84.5718 22.5421 83.7867 22.4079 82.8242 22.4079C82.0644 22.4079 81.3215 22.5841 80.5954 22.9364C79.8693 23.272 79.2784 23.8174 78.8225 24.5725H78.7465V22.7603H75.3272Z" fill="#071C28"/>
<path d="M94.7225 21.1243V35.7728H98.6989V21.1243H104.119V17.8019H89.3024V21.1243H94.7225Z" fill="#071C28"/>
<path d="M106.196 29.2791C106.196 28.759 106.247 28.2472 106.348 27.7438C106.449 27.2404 106.618 26.7957 106.854 26.4098C107.108 26.0239 107.437 25.7135 107.842 25.4786C108.247 25.2269 108.754 25.101 109.362 25.101C109.97 25.101 110.476 25.2269 110.882 25.4786C111.304 25.7135 111.633 26.0239 111.869 26.4098C112.123 26.7957 112.3 27.2404 112.401 27.7438C112.502 28.2472 112.553 28.759 112.553 29.2791C112.553 29.7993 112.502 30.3111 112.401 30.8145C112.3 31.3011 112.123 31.7457 111.869 32.1484C111.633 32.5344 111.304 32.8448 110.882 33.0797C110.476 33.3146 109.97 33.4321 109.362 33.4321C108.754 33.4321 108.247 33.3146 107.842 33.0797C107.437 32.8448 107.108 32.5344 106.854 32.1484C106.618 31.7457 106.449 31.3011 106.348 30.8145C106.247 30.3111 106.196 29.7993 106.196 29.2791ZM102.599 29.2791C102.599 30.3195 102.76 31.2591 103.081 32.0981C103.401 32.9371 103.857 33.6586 104.448 34.2627C105.039 34.8499 105.748 35.303 106.576 35.6218C107.403 35.9406 108.332 36.1 109.362 36.1C110.392 36.1 111.321 35.9406 112.148 35.6218C112.992 35.303 113.71 34.8499 114.301 34.2627C114.892 33.6586 115.348 32.9371 115.668 32.0981C115.989 31.2591 116.15 30.3195 116.15 29.2791C116.15 28.2388 115.989 27.2991 115.668 26.4602C115.348 25.6044 114.892 24.8829 114.301 24.2956C113.71 23.6915 112.992 23.2301 112.148 22.9113C111.321 22.5757 110.392 22.4079 109.362 22.4079C108.332 22.4079 107.403 22.5757 106.576 22.9113C105.748 23.2301 105.039 23.6915 104.448 24.2956C103.857 24.8829 103.401 25.6044 103.081 26.4602C102.76 27.2991 102.599 28.2388 102.599 29.2791Z" fill="#071C28"/>
<path d="M121.679 29.2791C121.679 28.759 121.73 28.2472 121.831 27.7438C121.933 27.2404 122.102 26.7957 122.338 26.4098C122.591 26.0239 122.92 25.7135 123.326 25.4786C123.731 25.2269 124.237 25.101 124.845 25.101C125.453 25.101 125.96 25.2269 126.365 25.4786C126.787 25.7135 127.116 26.0239 127.353 26.4098C127.606 26.7957 127.783 27.2404 127.885 27.7438C127.986 28.2472 128.037 28.759 128.037 29.2791C128.037 29.7993 127.986 30.3111 127.885 30.8145C127.783 31.3011 127.606 31.7457 127.353 32.1484C127.116 32.5344 126.787 32.8448 126.365 33.0797C125.96 33.3146 125.453 33.4321 124.845 33.4321C124.237 33.4321 123.731 33.3146 123.326 33.0797C122.92 32.8448 122.591 32.5344 122.338 32.1484C122.102 31.7457 121.933 31.3011 121.831 30.8145C121.73 30.3111 121.679 29.7993 121.679 29.2791ZM118.083 29.2791C118.083 30.3195 118.243 31.2591 118.564 32.0981C118.885 32.9371 119.341 33.6586 119.932 34.2627C120.523 34.8499 121.232 35.303 122.059 35.6218C122.887 35.9406 123.815 36.1 124.845 36.1C125.875 36.1 126.804 35.9406 127.631 35.6218C128.476 35.303 129.193 34.8499 129.784 34.2627C130.375 33.6586 130.831 32.9371 131.152 32.0981C131.473 31.2591 131.633 30.3195 131.633 29.2791C131.633 28.2388 131.473 27.2991 131.152 26.4602C130.831 25.6044 130.375 24.8829 129.784 24.2956C129.193 23.6915 128.476 23.2301 127.631 22.9113C126.804 22.5757 125.875 22.4079 124.845 22.4079C123.815 22.4079 122.887 22.5757 122.059 22.9113C121.232 23.2301 120.523 23.6915 119.932 24.2956C119.341 24.8829 118.885 25.6044 118.564 26.4602C118.243 27.2991 118.083 28.2388 118.083 29.2791Z" fill="#071C28"/>
<path d="M134.073 17.8019V35.7728H137.669V17.8019H134.073Z" fill="#071C28"/>
<path d="M143.287 31.5444H139.868C139.902 32.4169 140.096 33.1468 140.451 33.7341C140.822 34.3046 141.287 34.766 141.844 35.1184C142.418 35.4708 143.068 35.7225 143.794 35.8735C144.52 36.0245 145.263 36.1 146.023 36.1C146.766 36.1 147.492 36.0245 148.201 35.8735C148.927 35.7393 149.569 35.496 150.126 35.1436C150.683 34.7912 151.131 34.3298 151.468 33.7593C151.823 33.172 152 32.4505 152 31.5947C152 30.9906 151.882 30.4873 151.646 30.0845C151.409 29.6651 151.097 29.3211 150.708 29.0526C150.32 28.7673 149.873 28.5408 149.366 28.373C148.876 28.2052 148.37 28.0626 147.846 27.9451C147.34 27.8277 146.842 27.7186 146.352 27.6179C145.862 27.5173 145.423 27.4082 145.035 27.2907C144.664 27.1565 144.36 26.9887 144.123 26.7874C143.887 26.586 143.769 26.3259 143.769 26.0071C143.769 25.7386 143.836 25.5289 143.971 25.3779C144.106 25.2101 144.267 25.0842 144.453 25.0003C144.655 24.9164 144.875 24.8661 145.111 24.8493C145.347 24.8158 145.567 24.799 145.77 24.799C146.411 24.799 146.968 24.9248 147.441 25.1765C147.914 25.4114 148.176 25.8729 148.226 26.5608H151.646C151.578 25.7554 151.367 25.0926 151.012 24.5725C150.675 24.0355 150.244 23.6076 149.721 23.2888C149.197 22.97 148.598 22.7435 147.922 22.6092C147.264 22.475 146.58 22.4079 145.871 22.4079C145.162 22.4079 144.469 22.475 143.794 22.6092C143.119 22.7267 142.511 22.9448 141.97 23.2636C141.43 23.5657 140.991 23.9852 140.653 24.5221C140.333 25.0591 140.172 25.747 140.172 26.586C140.172 27.1565 140.29 27.6431 140.527 28.0458C140.763 28.4318 141.076 28.759 141.464 29.0274C141.852 29.2791 142.291 29.4889 142.781 29.6567C143.287 29.8077 143.802 29.9419 144.326 30.0594C145.609 30.3278 146.605 30.5963 147.315 30.8648C148.041 31.1333 148.404 31.536 148.404 32.0729C148.404 32.3917 148.328 32.6602 148.176 32.8783C148.024 33.0797 147.83 33.2475 147.593 33.3817C147.374 33.4992 147.12 33.5915 146.833 33.6586C146.563 33.7089 146.301 33.7341 146.048 33.7341C145.694 33.7341 145.347 33.6922 145.01 33.6083C144.689 33.5244 144.402 33.3985 144.149 33.2307C143.895 33.0461 143.684 32.8196 143.515 32.5511C143.363 32.2659 143.287 31.9303 143.287 31.5444Z" fill="#071C28"/>
<path opacity="0.8" fill-rule="evenodd" clip-rule="evenodd" d="M20.1189 12.9873L32.2379 19.9405V33.8467L20.1189 40.7999L8 33.8467V19.9405L20.1189 12.9873ZM10.6268 21.4475V32.3397L20.1189 37.7857L29.6111 32.3397V21.4475L20.1189 16.0015L10.6268 21.4475Z" fill="#31CDFF"/>
<path opacity="0.8" fill-rule="evenodd" clip-rule="evenodd" d="M30.7903 6.625L42.9093 13.5781V27.4844L30.7903 34.4376L18.6714 27.4844V13.5781L30.7903 6.625ZM21.2982 15.0852V25.9773L30.7903 31.4234L40.2825 25.9773V15.0852L30.7903 9.63918L21.2982 15.0852Z" fill="#0075E1"/>
<path opacity="0.9" fill-rule="evenodd" clip-rule="evenodd" d="M30.7903 19.0244L42.9093 25.9776V39.8839L30.7903 46.837L18.6714 39.8839V25.9776L30.7903 19.0244ZM21.2982 27.4847V38.3768L30.7903 43.8228L40.2825 38.3768V27.4847L30.7903 22.0386L21.2982 27.4847Z" fill="#28D898"/>
</svg>
