<svg width="39" height="29" viewBox="0 0 39 29" fill="none" xmlns="http://www.w3.org/2000/svg">
<path d="M4.875 8.15645H22.147C22.3992 8.68633 22.866 9.14507 23.4833 9.46952C24.1005 9.79396 24.8378 9.96818 25.5938 9.96818C26.3497 9.96818 27.087 9.79396 27.7042 9.46952C28.3215 9.14507 28.7883 8.68633 29.0405 8.15645H34.125C34.4482 8.15645 34.7582 8.06097 34.9868 7.89102C35.2153 7.72106 35.3438 7.49056 35.3438 7.2502C35.3438 7.00985 35.2153 6.77934 34.9868 6.60939C34.7582 6.43943 34.4482 6.34395 34.125 6.34395H29.0405C28.7883 5.81407 28.3215 5.35534 27.7042 5.03089C27.087 4.70644 26.3497 4.53223 25.5938 4.53223C24.8378 4.53223 24.1005 4.70644 23.4833 5.03089C22.866 5.35534 22.3992 5.81407 22.147 6.34395H4.875C4.55177 6.34395 4.24177 6.43943 4.01321 6.60939C3.78465 6.77934 3.65625 7.00985 3.65625 7.2502C3.65625 7.49056 3.78465 7.72106 4.01321 7.89102C4.24177 8.06097 4.55177 8.15645 4.875 8.15645Z" fill="#0F172A"/>
<path d="M34.125 20.844H29.0405C28.7883 20.3141 28.3215 19.8553 27.7042 19.5309C27.087 19.2064 26.3497 19.0322 25.5938 19.0322C24.8378 19.0322 24.1005 19.2064 23.4833 19.5309C22.866 19.8553 22.3992 20.3141 22.147 20.844H4.875C4.55177 20.844 4.24177 20.9394 4.01321 21.1094C3.78465 21.2793 3.65625 21.5098 3.65625 21.7502C3.65625 21.9906 3.78465 22.2211 4.01321 22.391C4.24177 22.561 4.55177 22.6565 4.875 22.6565H22.147C22.3992 23.1863 22.866 23.6451 23.4833 23.9695C24.1005 24.294 24.8378 24.4682 25.5938 24.4682C26.3497 24.4682 27.087 24.294 27.7042 23.9695C28.3215 23.6451 28.7883 23.1863 29.0405 22.6565H34.125C34.4482 22.6565 34.7582 22.561 34.9868 22.391C35.2153 22.2211 35.3438 21.9906 35.3438 21.7502C35.3438 21.5098 35.2153 21.2793 34.9868 21.1094C34.7582 20.9394 34.4482 20.844 34.125 20.844Z" fill="#0F172A"/>
<path d="M34.125 13.594H16.853C16.6008 13.0641 16.134 12.6053 15.5167 12.2809C14.8995 11.9564 14.1622 11.7822 13.4062 11.7822C12.6503 11.7822 11.913 11.9564 11.2958 12.2809C10.6785 12.6053 10.2117 13.0641 9.95947 13.594H4.875C4.55177 13.594 4.24177 13.6894 4.01321 13.8594C3.78465 14.0293 3.65625 14.2598 3.65625 14.5002C3.65625 14.7406 3.78465 14.9711 4.01321 15.141C4.24177 15.311 4.55177 15.4065 4.875 15.4065H9.95947C10.2117 15.9363 10.6785 16.3951 11.2958 16.7195C11.913 17.044 12.6503 17.2182 13.4062 17.2182C14.1622 17.2182 14.8995 17.044 15.5167 16.7195C16.134 16.3951 16.6008 15.9363 16.853 15.4065H34.125C34.4482 15.4065 34.7582 15.311 34.9868 15.141C35.2153 14.9711 35.3438 14.7406 35.3438 14.5002C35.3438 14.2598 35.2153 14.0293 34.9868 13.8594C34.7582 13.6894 34.4482 13.594 34.125 13.594Z" fill="#0F172A"/>
</svg>
