<svg width="21" height="23" viewBox="0 0 21 23" fill="none" xmlns="http://www.w3.org/2000/svg">
<g id="Vector">
<path d="M0 2.875C0 2.1125 0.276562 1.38124 0.768845 0.842068C1.26113 0.302901 1.92881 0 2.625 0L18.375 0C19.0712 0 19.7389 0.302901 20.2312 0.842068C20.7234 1.38124 21 2.1125 21 2.875V20.125C21 20.8875 20.7234 21.6188 20.2312 22.1579C19.7389 22.6971 19.0712 23 18.375 23H2.625C1.92881 23 1.26113 22.6971 0.768845 22.1579C0.276562 21.6188 0 20.8875 0 20.125V2.875ZM19.6875 2.875C19.6875 2.49375 19.5492 2.12812 19.3031 1.85853C19.0569 1.58895 18.7231 1.4375 18.375 1.4375H2.625C2.2769 1.4375 1.94306 1.58895 1.69692 1.85853C1.45078 2.12812 1.3125 2.49375 1.3125 2.875V20.125C1.3125 20.5062 1.45078 20.8719 1.69692 21.1415C1.94306 21.411 2.2769 21.5625 2.625 21.5625H18.375C18.7231 21.5625 19.0569 21.411 19.3031 21.1415C19.5492 20.8719 19.6875 20.5062 19.6875 20.125V2.875Z" fill="#0F172A"/>
<path d="M0 2.875C0 2.1125 0.276562 1.38124 0.768845 0.842068C1.26113 0.302901 1.92881 0 2.625 0L18.375 0C19.0712 0 19.7389 0.302901 20.2312 0.842068C20.7234 1.38124 21 2.1125 21 2.875V20.125C21 20.8875 20.7234 21.6188 20.2312 22.1579C19.7389 22.6971 19.0712 23 18.375 23H2.625C1.92881 23 1.26113 22.6971 0.768845 22.1579C0.276562 21.6188 0 20.8875 0 20.125V2.875ZM19.6875 2.875C19.6875 2.49375 19.5492 2.12812 19.3031 1.85853C19.0569 1.58895 18.7231 1.4375 18.375 1.4375H2.625C2.2769 1.4375 1.94306 1.58895 1.69692 1.85853C1.45078 2.12812 1.3125 2.49375 1.3125 2.875V20.125C1.3125 20.5062 1.45078 20.8719 1.69692 21.1415C1.94306 21.411 2.2769 21.5625 2.625 21.5625H18.375C18.7231 21.5625 19.0569 21.411 19.3031 21.1415C19.5492 20.8719 19.6875 20.5062 19.6875 20.125V2.875Z" fill="black" fill-opacity="0.2"/>
</g>
</svg>
